<svg xmlns="http://www.w3.org/2000/svg" xmlns:xlink="http://www.w3.org/1999/xlink" width="122.938" height="40" viewBox="0 0 122.938 40">
  <defs>
    <linearGradient id="linear-gradient" y1="1" x2="1.45" gradientUnits="objectBoundingBox">
      <stop offset="0" stop-color="#783dd4"/>
      <stop offset="1" stop-color="#5188cf"/>
    </linearGradient>
  </defs>
  <g id="Group_3922" data-name="Group 3922" transform="translate(-405 135.426)">
    <g id="Group_2799" data-name="Group 2799" transform="translate(405 -135.426)">
      <path id="Path_897-2" data-name="Path 897-2" d="M6083.295-6206.367c0-.094,0-.191-.006-.288,0-.03,0-.059,0-.089,0-.072-.007-.146-.014-.222,0-.03,0-.059-.006-.09-.007-.1-.017-.2-.028-.309,0-.014,0-.028-.005-.042-.01-.092-.023-.184-.036-.279-.005-.036-.01-.074-.017-.109-.012-.078-.023-.156-.038-.235-.006-.036-.012-.073-.017-.11-.02-.109-.041-.221-.063-.333-.006-.032-.014-.064-.021-.095-.019-.086-.037-.172-.055-.26l-.034-.145c-.018-.076-.036-.153-.055-.231-.012-.047-.023-.1-.037-.144-.028-.115-.06-.232-.092-.35-.015-.052-.03-.1-.045-.157-.021-.076-.042-.152-.065-.229l-.057-.188c-.021-.07-.042-.141-.065-.212s-.04-.128-.061-.193q-.057-.178-.119-.36c-.024-.074-.051-.149-.076-.223s-.044-.129-.066-.193c-.027-.08-.057-.16-.086-.24l-.065-.181q-.1-.282-.216-.572c-.006-.018-.013-.034-.018-.052-.038-.095-.076-.191-.113-.286-.022-.052-.043-.1-.063-.158-.039-.1-.079-.2-.12-.295-.017-.044-.036-.091-.054-.134q-.212-.515-.45-1.053l-.056-.126q-.075-.174-.156-.351c-.01-.026-.023-.053-.036-.079q-.264-.585-.557-1.2c-.017-.035-.033-.07-.051-.1-.064-.133-.127-.267-.193-.4l-.006-.014q-.315-.647-.661-1.326l-.052-.1q-.322-.627-.668-1.284c-.015-.029-.03-.057-.045-.086q-.361-.681-.75-1.392l-.019-.033c-.087-.162-.177-.324-.268-.486v0h0q-.529-.959-1.109-1.967c-3.326-5.795-6.7-10.768-6.735-10.818a1.792,1.792,0,0,0-1.734-.763,1.79,1.79,0,0,0-1.447,1.22l-6.285,19.595a1.775,1.775,0,0,0,.383,1.744c.142.154,14.188,15.452,15.469,16.845a1.789,1.789,0,0,0,1.317.576,1.79,1.79,0,0,0,.889-.236c.2-.115,4.868-2.875,5.035-10.711v-.018C6083.292-6206.084,6083.295-6206.225,6083.295-6206.367Z" transform="translate(-6060.115 6234.979)" fill="url(#linear-gradient)"/>
      <path id="Path_898-2" data-name="Path 898-2" d="M6199.845-6214.076l-6.287-19.668a1.787,1.787,0,0,0-1.447-1.225,1.791,1.791,0,0,0-1.733.767c-.034.05-3.408,5.04-6.735,10.856l-.081.145q1.1,1.961,2.012,3.718c1.907-3.475,4.012-6.929,5.724-9.606l4.83,15.114-6.073,6.639c.037.372.055.727.057,1.067a19.309,19.309,0,0,1-.582,4.8l9.933-10.858A1.785,1.785,0,0,0,6199.845-6214.076Z" transform="translate(-6164.702 6234.987)" fill="url(#linear-gradient)"/>
    </g>
    <g id="Group_4853" data-name="Group 4853" transform="translate(-41 -3114.926)">
      <path id="Path_1933" data-name="Path 1933" d="M6.8.144A5.639,5.639,0,0,1,3.8-.639a5.076,5.076,0,0,1-1.962-2.25,8.086,8.086,0,0,1-.684-3.447A8.132,8.132,0,0,1,1.836-9.8a5.1,5.1,0,0,1,1.953-2.25A5.627,5.627,0,0,1,6.8-12.834a5.674,5.674,0,0,1,3.024.783A5.085,5.085,0,0,1,11.79-9.81a8.071,8.071,0,0,1,.684,3.456,8.132,8.132,0,0,1-.684,3.465A5.076,5.076,0,0,1,9.828-.639,5.674,5.674,0,0,1,6.8.144Zm0-.99a4.077,4.077,0,0,0,3.33-1.44,6.227,6.227,0,0,0,1.188-4.068,6.222,6.222,0,0,0-1.179-4.059A4.083,4.083,0,0,0,6.8-11.844,4.051,4.051,0,0,0,3.483-10.4,6.229,6.229,0,0,0,2.3-6.354,6.267,6.267,0,0,0,3.483-2.3,4.04,4.04,0,0,0,6.8-.846ZM17.586-11.718H13.032v-.972H23.22v.972H18.684V0h-1.1ZM29.538.144a5.8,5.8,0,0,1-3.06-.783,5.15,5.15,0,0,1-2-2.25,7.953,7.953,0,0,1-.7-3.465,7.953,7.953,0,0,1,.7-3.465,5.094,5.094,0,0,1,2-2.241,5.856,5.856,0,0,1,3.06-.774,6.786,6.786,0,0,1,2.412.414,5.2,5.2,0,0,1,1.908,1.242l-.468.882a5.942,5.942,0,0,0-1.809-1.188,5.457,5.457,0,0,0-2.025-.36,4.218,4.218,0,0,0-3.411,1.44,6.1,6.1,0,0,0-1.215,4.05,6.162,6.162,0,0,0,1.206,4.068,4.213,4.213,0,0,0,3.42,1.44,5.457,5.457,0,0,0,2.025-.36A5.942,5.942,0,0,0,33.39-2.394l.468.882A5.2,5.2,0,0,1,31.95-.27,6.786,6.786,0,0,1,29.538.144Z" transform="translate(535.08 3005.5)" fill="#f6f8fa"/>
      <g id="Group_4853-2" data-name="Group 4853" transform="translate(491.358 2992.5)">
        <path id="Path_1396" data-name="Path 1396" d="M6071.289-5928.6h-2.9v13.189h9v-2.451h-6.1Z" transform="translate(-6068.389 5928.602)" fill="#f6f8fa"/>
        <rect id="Rectangle_3418" data-name="Rectangle 3418" width="2.899" height="13.189" transform="translate(10.719 0)" fill="#f6f8fa"/>
        <path id="Path_1397" data-name="Path 1397" d="M6162.152-5920.2l-6.584-8.4h-2.151v13.189h2.693v-8.418l6.6,8.418h2.133V-5928.6h-2.694Z" transform="translate(-6137.16 5928.602)" fill="#f6f8fa"/>
        <path id="Path_1398" data-name="Path 1398" d="M6231.1-5915.413h3.622l-9.877-13.189h-3.622Z" transform="translate(-6192.005 5928.602)" fill="#f6f8fa"/>
        <path id="Path_1399" data-name="Path 1399" d="M6227.231-5883.747l-1.812-2.419-3.8,5.075h3.622Z" transform="translate(-6192.398 5894.279)" fill="#f6f8fa"/>
        <path id="Path_1400" data-name="Path 1400" d="M6264.208-5923.4l3.892-5.2h-3.623l-2.08,2.778Z" transform="translate(-6225.378 5928.602)" fill="#f6f8fa"/>
      </g>
    </g>
  </g>
</svg>
